<?xml version="1.0" encoding="UTF-8" standalone="yes"?><!-- Created with Inkscape (http://www.inkscape.org/) --><svg xmlns="http://www.w3.org/2000/svg" width="512" height="512" version="1.2" viewBox="0 0 512 512" baseProfile="tiny-ps"><title>Ricky Burgin</title><g transform="translate(.070932 .24295)"><path d="m0 492.5v-19.5h4.0542c9.3197 0 42.768-11.602 52.743-18.294 3.7223-2.4974 9.9033-5.6367 13.736-6.9762 3.8322-1.3395 10.118-3.811 13.968-5.492 3.85-1.6811 8.8-3.5372 11-4.1246 7.5158-2.0068 27.988-10.172 36.5-14.558 4.675-2.4089 10.22-4.7003 12.321-5.0921s5.0918-1.7812 6.6444-3.0876c1.5526-1.3064 3.9094-2.3753 5.2374-2.3753 3.5988 0 5.0557-1.6303 10.154-11.363l4.6428-8.8629v-34.073l-4.9348-10.752c-2.7142-5.9134-5.4596-12.709-6.101-15.1-0.64138-2.3918-2.4707-8.3806-4.0652-13.308-1.5944-4.9277-2.899-9.5832-2.899-10.346s-0.85081-2.581-1.8907-4.0414c-2.8871-4.0545-7.1093-15.116-7.1093-18.626 0-1.7202-0.50398-3.6316-1.12-4.2475-1.981-1.981 1.9166-44.418 4.2097-45.836 0.50064-0.30941 0.91025-1.661 0.91025-3.0036s0.81482-3.2558 1.8107-4.2517c3.2244-3.2244 5.1893-6.5834 5.1893-8.8713 0-1.2304 1.2158-3.3644 2.7018-4.7423 1.486-1.3779 2.4396-2.7676 2.119-3.0881s-1.2792 0.11363-2.1304 0.96482c-2.8142 2.8142-3.7979 1.8072-3.6162-3.7024 0.18425-5.5878 2.5235-30.564 3.4888-37.25 1.0306-7.1387 5.4717-19.754 10.913-31 2.9273-6.05 5.8836-12.8 6.5696-15 1.9504-6.2551 7.1094-13.502 13.882-19.5 3.4156-3.025 8.3167-7.7112 10.891-10.414 2.5747-2.7026 7.4429-7.7143 10.818-11.137s6.5254-6.8943 7-7.7144c1.6192-2.7979 8.5924-6.7347 11.929-6.7347 2.7557 0 4.5182-1.2228 10.896-7.5595l7.6087-7.5595 3.2499 2.0086c2.9148 1.8014 3.504 1.8608 5.7143 0.57546 1.3554-0.7882 3.2012-1.7045 4.1018-2.0363 0.90059-0.33175 2.4254-2.3506 3.3885-4.4863 2.0144-4.4671 3.8917-6.3903 7.6224-7.8087 2.2272-0.84679 3.8353-0.40734 10.188 2.7841 7.7377 3.8872 12.911 8.769 25.677 24.228 3.3864 4.1008 10.975 8.1606 15.472 8.2772 2.4297 0.06301 3.6098 1.0073 6.3454 5.0774 1.8483 2.75 4.4552 7.3178 5.793 10.151 1.3379 2.8329 3.1423 5.7397 4.0098 6.4597 0.86754 0.71999 3.2852 3.8022 5.3727 6.8494 2.0874 3.0472 4.7889 6.5863 6.0032 7.8648 3.516 3.7018 12.951 20.281 14.039 24.671 0.54619 2.2027 1.8838 5.9294 2.9725 8.2816 1.0887 2.3522 1.9795 5.4121 1.9795 6.7997s0.62179 3.7381 1.3818 5.2232c0.75997 1.4852 1.6827 4.7253 2.0504 7.2003 0.36779 2.475 1.3405 8.6544 2.1616 13.732 1.0851 6.7104 1.2204 10.261 0.49535 13-1.7934 6.7737-3.3332 16.601-4.0242 25.684-0.57888 7.6084-0.99584 9.1265-2.8438 10.353-2.0298 1.3477-2.0717 1.6192-0.66897 4.3318 0.82308 1.5917 1.4373 4.5826 1.3649 6.6465s0.20085 9.1526 0.60722 15.753c0.65395 10.621 0.4939 12.869-1.3927 19.564-1.1724 4.1601-2.1316 10.061-2.1316 13.114 0 9.03-1.7184 15.775-6.4511 25.323-2.4537 4.95-5.108 11.7-5.8983 15-3.351 13.992-9.8912 25.449-23.313 40.84-11.839 13.575-11.782 13.414-11.572 32.65 0.099 9.0804 0.1923 17.041 0.20744 17.691 0.0212 0.9081 16.956 13.081 24.365 17.514 1.0457 0.62564 25.251 11.741 30.162 13.851 14.946 6.4212 49.863 27.351 68 40.761 5.5 4.0665 11.688 8.2574 13.75 9.3132 2.0625 1.0558 3.75 2.026 3.75 2.1559 0 0.12995 0.41859 1.6958 0.93019 3.4797l0.9302 3.2434h-461.86z" fill="#9b4749"></path><path d="m0.043974 492.94c0.1035-17.165 0.27014-18.928 1.679-17.758 2.1482 1.7828 14.971 1.8884 16.426 0.13527 0.60269-0.72619 2.0596-1.3204 3.2375-1.3204 1.1779 0 4.6103-0.9527 7.6276-2.1171s8.1541-3.0303 11.415-4.1464 7.7611-3.318 10-4.8931c10.202-7.1777 12.873-8.9482 15.706-10.413 4.8875-2.5274 21.634-9.4255 31.365-12.919 19.303-6.9309 26.314-9.7687 34.5-13.964 4.675-2.3961 10.525-4.8904 13-5.543s6.039-2.1293 7.9201-3.2816l3.4201-2.0952 1.5799 2.427c6.0825 9.3437 28.749 34.983 46.2 52.257 3.7841 3.746 6.8802 7.1706 6.8802 7.6101 0 1.5037 6.8632 8.0789 8.4328 8.0789 0.86193 0 1.5672 0.45 1.5672 1s0.41823 1 0.9294 1 2.937 2.1375 5.3907 4.75c14.091 15.003 17.68 18.977 17.68 19.58 0 0.36847-55.141 0.66994-122.54 0.66994h-122.54zm1.956-16.443c0-0.275-0.225-0.5-0.5-0.5s-0.5 0.225-0.5 0.5 0.225 0.5 0.5 0.5 0.5-0.225 0.5-0.5zm331.12 30.25c2.3321-6.7507 2.3232-11.007-0.044-21.073-1.0576-4.4975-2.2035-12.452-2.5464-17.677-0.99046-15.095-5.1002-27.502-10.897-32.897-3.0039-2.7959-5.1262-8.4165-3.9507-10.463 0.63961-1.1136 4.0515 0.72687 15.699 8.4687 8.185 5.4404 15.392 9.8916 16.015 9.8916s2.9262 0.96279 5.1181 2.1395c2.1918 1.1767 9.472 4.534 16.178 7.4607 23.515 10.262 61.398 32.715 74.654 44.246 2.6659 2.319 7.2521 5.7549 10.192 7.6352 3.8188 2.4429 5.3005 4.004 5.1902 5.4687-0.15395 2.0433-0.35621 2.0498-63.788 2.0498h-63.634zm126.88 4.75c0-0.275 0.225-0.5 0.5-0.5s0.5 0.225 0.5 0.5-0.225 0.5-0.5 0.5-0.5-0.225-0.5-0.5zm-224-20.5c0-0.55 0.45-1 1-1s1 0.45 1 1-0.45 1-1 1-1-0.45-1-1zm4 0.5c0-0.275 0.225-0.5 0.5-0.5s0.5 0.225 0.5 0.5-0.225 0.5-0.5 0.5-0.5-0.225-0.5-0.5zm27.107-55.097c-1.7087-0.71847-3.1068-1.7269-3.1068-2.241s-1.9876-1.2328-4.417-1.5971c-3.1561-0.47328-4.8823-1.3725-6.047-3.15-1.3869-2.1166-2.1378-2.3924-5.035-1.8489-2.577 0.48346-4.1229 0.1276-6.3574-1.4635-3.491-2.4858-6.1436-2.7204-6.1436-0.54326 0 0.85746-0.48068 1.2619-1.0682 0.89885-0.5875-0.3631-0.84276-1.2476-0.56725-1.9656 0.5225-1.3616 0.385-1.4247-12.365-5.675-6.5103-2.1703-7.8761-3.0557-10.35-6.7094-1.5676-2.3151-4.6288-5.332-6.8028-6.7044-3.0247-1.9094-3.8097-2.9457-3.3437-4.4139 0.72593-2.2872-3.015-7.8277-6.0833-9.0096-1.2359-0.47606-2.8192-2.7651-3.9016-5.6406-1.0019-2.6617-3.317-6.5155-5.1446-8.5642-1.8277-2.0486-3.6185-4.9736-3.9796-6.5-0.36114-1.5264-1.4677-3.6752-2.459-4.7752-3.4005-3.7735-4.9719-7.7509-3.678-9.3099 0.94134-1.1342 0.51851-2.0014-2.1297-4.3676-4.7343-4.2301-6.4694-11.549-2.0797-8.7719 0.79874 0.50529 2.9289 0.9256 4.7336 0.93402 3.8257 0.0179 5.1819-2.1643 2.8158-4.5304-0.87842-0.87842-1.5971-2.0261-1.5971-2.5504s-1.125-1.381-2.5-1.9038c-2.4946-0.94845-2.978-2.618-1.9098-6.5967 0.44203-1.6465 1.1369-1.9903 3.2363-1.601 1.4704 0.27265 3.0534 0.99117 3.5178 1.5967 0.52654 0.68658 0.64733 0.48106 0.32092-0.54601-0.99284-3.1241 4.3341-2.9975 9.5998 0.22806 2.6208 1.6054 5.34 2.9189 6.0426 2.9189 1.7152 0 1.6651 11.428-0.0576 13.15-2.1194 2.1191-1.5332 4.159 1 3.4801 1.2375-0.33164 2.5562-0.60913 2.9304-0.61664 0.37425-8e-3 0.8257-1.0262 1.0032-2.2636 0.24895-1.7353 0.89391-2.1901 2.8196-1.9881 4.2989 0.45091 5.482 1.1529 4.164 2.4709-1.9577 1.9577-1.3389 2.7161 2.7493 3.3699 2.5529 0.40822 5.3836 1.954 8.1304 4.4398 3.5122 3.1785 4.1257 4.2748 3.6842 6.5843-0.37916 1.9834 0.17904 3.7 1.9643 6.0405 1.3717 1.7984 2.7889 3.2306 3.1493 3.1829 1.9964-0.26465 3.1554 0.31292 3.1554 1.5724 0 0.78234 1.612 1.9544 3.5821 2.6047 3.0697 1.0131 3.4976 1.5192 2.991 3.5375-0.82266 3.2778 2.2725 4.9322 5.2828 2.8237 1.1908-0.83407 3.027-1.2429 4.0804-0.9086 1.2533 0.39779 2.2582-5e-3 2.9075-1.1651 0.92091-1.6456 1.1239-1.6554 2.8242-0.13685 3.9261 3.5064 18.035 5.3608 20.782 2.7315 0.5225-0.5001 1.9066-0.90928 3.0757-0.90928 1.1691 0 3.1826-1.125 4.4743-2.5 1.4217-1.5133 3.4548-2.5 5.1513-2.5 1.8534 0 3.3342-0.81135 4.3723-2.3956 0.86329-1.3176 2.4487-2.6254 3.523-2.9064 1.418-0.37083 1.9534-1.377 1.9534-3.6712 0-4.668 8.248-14.027 12.362-14.027 1.6393 0 3.8298 0.76858 4.8678 1.708 2.5538 2.3112 5.0902 0.65251 5.8364-3.8168 1.4279-8.5528 6.8904-11.209 9.2517-4.4994 0.24167 0.68678 1.215 0.37564 2.5597-0.81818 1.4799-1.3139 1.8443-2.2518 1.1461-2.95-0.563-0.563-1.0236-1.6928-1.0236-2.5107 0-1.0017 1.0035-0.52839 3.0743 1.45 2.8574 2.7299 3.165 2.8136 4.3602 1.1871 0.70728-0.9625 1.6988-1.75 2.2035-1.75 1.3193 0 4.362 3.7736 4.362 5.4099 0 2.5997-5.9108 12.632-11.212 19.03-2.9086 3.5104-7.2688 8.785-9.6893 11.721-2.4205 2.9364-5.4705 7.6567-6.7778 10.49-1.3073 2.8329-3.0394 5.7005-3.8491 6.3724s-1.4854 1.7292-1.5015 2.3494c-0.0378 1.4549-5.639 7.6276-6.9214 7.6276-1.2692 0-3.2989 3.7872-2.6191 4.887 0.28747 0.46513-0.34978 1.6352-1.4161 2.6002-1.0663 0.96501-2.4406 3.2752-3.054 5.1336-0.61336 1.8585-1.5303 3.3791-2.0376 3.3791-0.50735 0-0.92245 0.88844-0.92245 1.9743 0 1.1749-1.1946 2.5921-2.9503 3.5-1.6227 0.83911-3.3102 2.099-3.75 2.7997-0.43983 0.70072-2.0372 2.0611-3.5497 3.0231s-2.75 2.4137-2.75 3.226-0.65264 1.477-1.4503 1.477-1.8102 0.5625-2.25 1.25c-1.0752 1.6807-7.3553 1.7665-11.193 0.15286zm-76.107-69.852c0-1.278-5.8177-6.5509-7.2278-6.5509-0.29644 0-0.77433 0.9-1.062 2s-0.0736 2 0.47564 2c0.54926 0 2.1428 0.9 3.5412 2 3.012 2.3692 4.2729 2.5318 4.2729 0.55089zm-10.473-14.595c0.63228-1.023-1.1627-3.9711-2.3995-3.9409-0.34516 8e-3 -1.2736 0.42413-2.0633 0.92379-1.1898 0.7529-1.2117 1.1784-0.12755 2.4847 1.5006 1.8081 3.648 2.0572 4.5903 0.53242zm8.2027-3.2669c-0.66975-2.0093-2.7298-1.8614-2.7298 0.19599 0 1.4381 0.46137 1.8749 1.5423 1.4601 0.84825-0.3255 1.3826-1.0708 1.1875-1.6561zm67.536 0.64662c-1.2289-0.85755-4.8243-2.0714-7.9896-2.6976-3.7612-0.74396-5.8572-1.6742-6.0497-2.685-0.36246-1.9034 6.509-5.9533 10.101-5.9533 1.4052 0 2.83-0.44531 3.1664-0.98959 0.88906-1.4385 15.426-0.93489 18.442 0.63893 1.4105 0.73608 3.2621 1.3411 4.1146 1.3445 2.0691 8e-3 3.95 1.9944 3.95 4.171 0 2.4853-3.0665 3.8352-8.712 3.8352-3.606 0-5.281 0.51099-6.556 2-2.0682 2.4155-7.248 2.5818-10.466 0.33591zm83.734-11.836c0-0.275 0.225-0.5 0.5-0.5s0.5 0.225 0.5 0.5-0.225 0.5-0.5 0.5-0.5-0.225-0.5-0.5zm-48.108-7.3105c-5.8077-3.0572-7.0198-3.315-15.84-3.3697-5.2532-0.0326-10.226-0.023-11.051 0.0213-2.9116 0.15625-19.534-0.79142-22.113-1.2607-1.5112-0.27503-4.1446 0.34558-6.2464 1.472-2.7152 1.4553-5.6146 1.9475-11.471 1.9475-4.3103 0-8.1454 0.3084-8.5223 0.68534-0.76189 0.76189-7.6452 3.276-9.0339 3.2996-1.1739 0.0199-0.0672-7.7238 2.0126-14.083 1.9583-5.9872 8.1671-11.519 17.94-15.984 3.3368-1.5246 6.6178-3.4357 7.291-4.2469 0.67325-0.81122 2.2535-1.7333 3.5116-2.0491 2.7431-0.68848 4.8475-4.7209 5.183-9.9317 0.3124-4.8516 2.8509-7.6949 6.8524-7.6751 3.6546 0.0181 4.8954 0.72442 6.4453 3.669 1.5408 2.9272 1.462 3.3157-0.67216 3.3157-2.6157 0-11.178 3.0422-11.178 3.9716 0 1.929 3.1372 3.2258 6.2408 2.5798 1.7925-0.37307 4.6092-0.76225 6.2592-0.86484 3.8588-0.23993 5.5-1.3375 5.5-3.6782 0-2.7153 3.9991-3.7301 5.6738-1.4398 0.72941 0.99752 1.3262 2.5723 1.3262 3.4994 0 2.1164 9.2925 6.2913 12.053 5.4152 1.097-0.34818 1.947-0.15324 1.947 0.44654 0 2.186 7.6582 9.4609 11.977 11.378 4.9488 2.1964 14.852 11.528 17.34 16.34 1.2453 2.4082 1.378 3.8717 0.60481 6.6719l-0.99044 3.5871-7.3756-0.20306c-6.1839-0.17026-8.3918-0.73796-13.665-3.5136zm-16.892-9.8553c2.475-0.24191 6.1897 0.1067 8.255 0.77468 7.1304 2.3063 6.0239-1.5751-1.4229-4.9914-4.7206-2.1656-6.45-2.357-21.399-2.3676-12.907-9e-3 -17.364 0.35375-21.598 1.7587-2.934 0.97363-5.9256 1.9293-6.648 2.1238s-1.0288 0.81408-0.6809 1.3769c0.34786 0.56286 0.97812 0.80976 1.4006 0.54867 0.42245-0.26109 4.2848-0.55624 8.5829-0.6559 4.2981-0.0997 9.2171-0.49747 10.931-0.88403 2.1985-0.49584 4.878-0.0276 9.098 1.5897 3.29 1.2609 6.6567 2.0392 7.4817 1.7294s3.525-0.76104 6-1.003zm-108.81 3.5908c0.19708-0.59125 0.78583-1.075 1.3083-1.075s1.1112 0.48375 1.3083 1.075c0.19709 0.59125-0.39166 1.075-1.3083 1.075s-1.5054-0.48375-1.3083-1.075zm186.81-5.7339c0-0.99488 0.60631-2.638 1.3474-3.6515 2.05-2.8035 3.1844-1.8e-4 1.2158 3.0043-1.9158 2.9239-2.5631 3.0873-2.5631 0.64715zm-176.5-3.1911c-0.33992-0.55 0.11008-1 1-1s1.3399 0.45 1 1-0.78992 1-1 1-0.66008-0.45-1-1zm-15.5-0.87756c0-1.5381 2.8676-3.3223 4.1077-2.5559 0.86075 0.53198 0.67958 1.1158-0.64733 2.0861-2.1212 1.5511-3.4604 1.7329-3.4604 0.4698zm114.75-25.203c-2.0353-1.1854-2.3055-4.2404-0.5-5.653 2.924-2.2878 5.947-2.1608 8.4632 0.35541 2.3922 2.3922 2.4218 2.571 0.73477 4.4352-1.9003 2.0998-5.8937 2.4958-8.698 0.8624zm28.25-36.824c-3.025-1.038-6.9269-2.1871-8.671-2.5536-1.744-0.36654-4.3547-1.7635-5.8015-3.1043-3.1881-2.9547-3.5275-2.9968-3.5275-0.4379 0 5.357-4.9927-1.553-5.6996-7.8882-0.20791-1.8635-0.81056-4.1964-1.3392-5.1843-0.52867-0.98782-0.96122-4.0205-0.96122-6.7393 0-2.7924-0.55607-5.4048-1.278-6.0039-1.6171-1.3421-15.832-2.5574-17.376-1.4855-0.99045 0.68786-3.1548 7.1438-5.039 15.031-0.60072 2.5146-6.6058 9.2704-8.2401 9.2704-0.58693 0-1.0672-0.70532-1.0672-1.5674 0-2.0521-3.4692-1.0206-7.2794 2.1644-3.3346 2.7875-8.3481 3.8705-14.034 3.0316-2.3027-0.33973-6.8867-0.8044-10.187-1.0326-7.8103-0.54008-9.5-1.2876-9.5-4.203 0-1.7916-0.56549-2.4128-2.25-2.472-1.2375-0.0434-1.6875-0.30592-1-0.58333 1.9533-0.78817 1.4679-5.1198-0.83136-7.4191-1.9611-1.9611-2.1891-1.9838-3.9472-0.3928-1.6361 1.4806-2.2417 1.5222-4.9186 0.33724-3.445-1.5249-3.3858-1.2591-2.0708-9.2892 1.0632-6.4925 0.59214-7.7054-3.8179-9.8307-1.4188-0.68374-2.8236-2.2822-3.1219-3.5522-0.82832-3.5269-2.3099-3.0416-4.8672 1.5944-2.3551 4.2692-4.1751 5.4526-4.1751 2.7146 0-1-1-1.5-3-1.5-3.4813 0-3.9668-1.9152-0.9612-3.7922 1.1213-0.70029 1.7698-1.7085 1.441-2.2406s-0.23377-1.0043 0.21119-1.0495c3.1412-0.31928 6.8083-1.1826 10.388-2.4458 2.2946-0.8096 5.1888-1.472 6.4314-1.472 1.3064 0 2.9501-1.0544 3.8973-2.5 0.90094-1.375 2.3206-2.5 3.1548-2.5s3.2809-0.9 5.4371-2c6.9016-3.5209 21.1-2.3041 37.45 3.2095 9.7781 3.2974 15.704 7.3335 17.644 12.018 1.5565 3.7577 5.5482 5.4628 13.279 5.6721 6.2505 0.16928 14.627-2.8854 14.627-5.3341 0-0.69069 0.89156-2.0626 1.9812-3.0488 1.6396-1.4838 2.2482-1.5714 3.5296-0.50797 1.2577 1.0438 2.0591 1.0454 4.2688 9e-3 1.4962-0.70208 4.1699-1.6179 5.9415-2.0352 3.7787-0.89003 24.9 1.2094 27.804 2.7637 1.0977 0.58748 3.2371 0.83085 4.7543 0.54082 4.6395-0.88689 12.935 6.0346 19.22 16.037 0.55 0.87526 2.35 1.7229 4 1.8836l3 0.29221 0.24901-7.5c0.13695-4.125 0.67286-12.729 1.1909-19.121 0.87216-10.761 0.76914-12.241-1.3913-20-5.2301-18.783-10.219-31.771-13.954-36.329-4.6844-5.7167-17.945-14.52-22.048-14.636-1.6755-0.0477-12.496-0.21987-24.046-0.38254-18.681-0.26309-22.877-0.65008-38-3.5043-9.35-1.7647-20.825-3.6577-25.5-4.2067-4.878-0.57282-9.2191-1.6412-10.188-2.5074-2.289-2.0471-8.5885-0.9358-16.092 2.8389-6.8451 3.4434-12.352 8.2079-16.275 14.081-1.5676 2.3471-4.6718 6.0674-6.8981 8.2674-6.415 6.3392-10.344 14.242-10.472 21.063-0.0418 2.2346-1.2355 6.4662-2.6525 9.4036-1.4171 2.9374-2.3515 6.2012-2.0764 7.2528 0.275 1.0516-0.36559 4.428-1.4235 7.503-1.058 3.0745-1.9236 7.9734-1.9236 10.886 0 5.1389-0.13103 5.3856-4.4334 8.3456l-4.4334 3.0502-0.31664-2.7522c-0.17414-1.5137-9e-3 -5.2272 0.36757-8.2522 0.37631-3.025 1.1555-10.938 1.7315-17.585 1.4202-16.388 5.6557-29.079 14.655-43.915 1.3346-2.2 2.9174-5.8 3.5174-8 1.8002-6.6005 6.5323-13.866 12.092-18.567 5.895-4.984 12.535-9.9329 13.327-9.9329 0.9017 0 14.905-14.377 16.679-17.124 1.7723-2.7444 9.6567-7.8759 12.101-7.8759 0.78716 0 3.407-1.5706 5.8219-3.4903 5.0828-4.0405 5.49-4.1499 6.1436-1.6509 1.0094 3.86 8.7472 3.4343 8.7472-0.48127 0-2.2825 1.8368-1.5475 2.1804 0.87244 0.2003 1.4103 1.1229 2.3645 2.4721 2.5568 1.8038 0.25707 2.2602-0.33094 2.8175-3.6295 0.65839-3.897 0.69955-3.9284 4.1251-3.1559 4.9218 1.1101 6.3112-0.64858 6.209-7.8591-0.0828-5.8397 2.0802-11.162 4.5361-11.162 0.61062 0 4.1176 1.1799 7.7934 2.622 6.0018 2.3547 7.4826 3.5487 14.525 11.711 4.3129 4.9989 9.566 10.997 11.674 13.329 4.3419 4.804 13.453 10.338 17.02 10.338 2.4383 0 6.5603 4.9974 8.0854 9.8025 0.73215 2.3068 11.597 17.197 16.561 22.697 4.54 5.0303 12.845 19.836 13.988 24.939 0.59343 2.648 1.5634 5.7197 2.1555 6.8261 0.59211 1.1064 1.2045 3.1868 1.3609 4.6233 0.15641 1.4364 1.187 5.3117 2.2901 8.6117 4.6479 13.904 5.569 27.206 2.7698 40-0.96267 4.4-1.977 11.6-2.2541 16-0.54535 8.6608-2.9297 13.094-6.5356 12.151-0.97411-0.25474-2.0418-0.0251-2.3727 0.51027-0.33089 0.53538 0.36169 1.2253 1.539 1.5332 1.1774 0.30789 2.8304 1.8935 3.6733 3.5236 1.3737 2.6564 1.3745 3.1386 8e-3 4.649-0.8388 0.92686-1.8317 3.6984-2.2065 6.1591-1.1285 7.4094-2.0238 7.6339-3.3599 0.84261-0.68637-3.4888-1.8793-7.5641-2.651-9.0563-0.77209-1.4922-1.4034-4.5196-1.4034-6.7276 0-4.7129-2.3878-6.5978-7.0586-5.572-2.8557 0.62723-4.1579 2.4871-1.7414 2.4871 2.4956 0-0.93117 2.0992-3.7982 2.3268-2.8797 0.22856-2.9018 0.27953-2.9018 6.7018 0 3.5593-0.31769 6.9589-0.70597 7.5547-0.95249 1.4615-6.8196 0.51373-7.4804-1.2084-0.29017-0.75617-1.42-1.3748-2.5108-1.3748-2.6221 0-9.416 4.9099-10.724 7.75-0.70741 1.5363-1.9152 2.2543-3.8075 2.2636-1.5243 8e-3 -3.6714 0.22869-4.7714 0.4915-1.1 0.26282-4.475-0.37138-7.5-1.4093zm20.075-13.371c-0.12369-1.1957-1.4953-0.96414-1.925 0.325-0.22 0.66 0.14 1.02 0.8 0.8s1.1662-0.72625 1.125-1.125zm-114.08-8.57c0-0.46476-0.9-1.6595-2-2.655s-2-2.6732-2-3.7283c0-3.0289-3.4414-1.76-3.8084 1.4043-0.23905 2.0606 0.32346 2.9911 2.5 4.1354 3.2671 1.7176 5.3084 2.0421 5.3084 0.84365zm130.5-4.155c0.33992-0.55-0.0835-1-0.94098-1-0.85746 0-1.559 0.45-1.559 1s0.42344 1 0.94098 1 1.2191-0.45 1.559-1zm-84.5-7.5c0-1.6295-0.55953-2.5-1.607-2.5-1.0545 0-1.3983 0.5438-1 1.5818 0.33385 0.86998 0.60699 1.995 0.60699 2.5 0 0.50501 0.45 0.91821 1 0.91821s1-1.125 1-2.5zm-98.421 14.847 0.0786-15.652 3.1872-2.8478c1.7529-1.5663 3.8551-2.8478 4.6714-2.8478 1.8671 0 1.9162 3.2551 0.10247 6.7997-0.75997 1.4852-1.7057 4.6496-2.1017 7.0321-0.39597 2.3825-1.3307 5.509-2.0772 6.9478-0.74647 1.4388-1.6588 5.6771-2.0275 9.4183s-0.94963 6.802-1.2911 6.8018-0.58542-7.0437-0.5422-15.652z" fill="#34181f"></path></g></svg>