<?xml version="1.0" standalone="no"?>
<!DOCTYPE svg PUBLIC "-//W3C//DTD SVG 20010904//EN"
 "http://www.w3.org/TR/2001/REC-SVG-20010904/DTD/svg10.dtd">
<svg version="1.0" xmlns="http://www.w3.org/2000/svg"
 width="512.000000pt" height="512.000000pt" viewBox="0 0 512.000000 512.000000"
 preserveAspectRatio="xMidYMid meet">
<metadata>
Created by potrace 1.14, written by Peter Selinger 2001-2017
</metadata>
<g transform="translate(0.000000,512.000000) scale(0.100000,-0.100000)"
fill="#000000" stroke="none">
<path d="M2090 5105 c33 -19 46 -19 30 0 -7 8 -22 15 -34 15 -20 -1 -20 -2 4
-15z"/>
<path d="M2883 4941 c-182 -179 -250 -251 -239 -251 4 0 41 34 82 76 86 84 86
85 192 38 28 -12 52 -19 52 -15 0 9 -76 46 -112 55 -16 4 -28 10 -28 15 0 4
57 65 127 135 69 69 122 126 117 126 -5 0 -91 -80 -191 -179z"/>
<path d="M2150 5094 c0 -7 83 -44 88 -39 3 3 3 6 1 8 -9 7 -89 35 -89 31z"/>
<path d="M2280 5040 c8 -5 22 -10 30 -10 13 0 13 1 0 10 -8 5 -22 10 -30 10
-13 0 -13 -1 0 -10z"/>
<path d="M2383 5010 c2 -8 14 -16 28 -17 19 -1 20 -1 4 4 -11 3 -24 10 -28 17
-6 7 -7 6 -4 -4z"/>
<path d="M5085 4972 c-17 -15 -62 -49 -101 -77 -57 -41 -145 -104 -209 -152
-6 -5 -27 -21 -48 -37 -21 -15 -36 -30 -34 -33 3 -2 54 31 114 76 59 44 123
90 141 103 38 27 113 84 151 115 14 12 24 24 21 27 -3 3 -19 -7 -35 -22z"/>
<path d="M2506 4963 c-3 -4 11 -12 31 -19 43 -15 59 -10 18 6 -15 6 -31 13
-35 15 -4 2 -10 2 -14 -2z"/>
<path d="M2610 4919 c0 -5 9 -9 20 -9 11 0 20 2 20 4 0 2 -9 6 -20 9 -11 3
-20 1 -20 -4z"/>
<path d="M2660 4902 c0 -9 82 -33 89 -26 5 4 -63 34 -79 34 -5 0 -10 -4 -10
-8z"/>
<path d="M670 4869 c0 -5 5 -7 10 -4 6 3 10 8 10 11 0 2 -4 4 -10 4 -5 0 -10
-5 -10 -11z"/>
<path d="M645 4830 c-3 -5 -1 -10 4 -10 6 0 11 5 11 10 0 6 -2 10 -4 10 -3 0
-8 -4 -11 -10z"/>
<path d="M3035 4764 c28 -13 56 -24 63 -24 7 0 20 -4 30 -10 29 -17 102 -38
102 -30 0 9 -162 70 -185 70 -8 0 -17 5 -20 10 -3 6 -14 10 -23 9 -9 0 6 -11
33 -25z"/>
<path d="M570 4715 c-7 -9 -11 -17 -9 -20 3 -2 10 5 17 15 14 24 10 26 -8 5z"/>
<path d="M3254 4686 c11 -9 29 -16 40 -16 17 1 18 2 6 9 -8 5 -26 12 -40 15
-24 7 -24 6 -6 -8z"/>
<path d="M2610 4674 c0 -8 5 -12 10 -9 6 3 10 10 10 16 0 5 -4 9 -10 9 -5 0
-10 -7 -10 -16z"/>
<path d="M2746 4665 c4 -8 2 -15 -4 -15 -6 0 -12 6 -15 13 -4 9 -7 9 -18 -1
-11 -11 -12 -14 -1 -21 11 -7 10 -9 -2 -14 -9 -4 -16 -1 -16 5 0 9 -3 9 -12 0
-9 -9 -9 -18 1 -38 10 -23 10 -26 -4 -20 -13 4 -15 1 -10 -14 4 -11 2 -20 -3
-20 -6 0 -15 -13 -21 -30 -10 -31 -26 -39 -33 -17 -7 20 -58 16 -58 -4 0 -10
-5 -21 -12 -25 -12 -8 -40 24 -35 41 5 14 -21 37 -34 30 -6 -4 -8 -18 -5 -30
5 -21 -1 -27 -49 -51 -31 -15 -60 -35 -65 -44 -12 -22 -70 -33 -70 -13 0 8 -4
12 -10 8 -5 -3 -7 -12 -4 -20 8 -19 -45 -53 -56 -36 -5 9 -10 9 -14 3 -3 -6
-1 -12 6 -14 8 -3 4 -12 -10 -26 -13 -13 -19 -28 -16 -37 7 -18 -24 -45 -43
-38 -7 3 -13 1 -13 -4 0 -6 -16 -18 -35 -29 -24 -13 -35 -26 -35 -42 0 -12 -8
-26 -17 -29 -10 -4 -35 -20 -55 -36 -20 -16 -41 -26 -47 -22 -6 3 -11 2 -11
-4 0 -6 -26 -36 -58 -68 -32 -32 -65 -73 -73 -91 -7 -17 -18 -32 -22 -32 -5 0
-7 -11 -5 -24 3 -25 -48 -136 -63 -136 -5 0 -9 -6 -9 -14 0 -8 -9 -30 -19 -48
-41 -71 -98 -279 -88 -319 3 -10 1 -19 -4 -19 -6 0 -8 -26 -7 -59 2 -42 7 -57
16 -54 7 3 11 10 10 17 -1 6 5 25 15 41 14 26 23 22 18 -7 -2 -13 7 -9 36 18
21 20 24 27 13 34 -11 7 -10 16 5 57 10 26 24 55 31 63 15 18 47 147 39 159
-2 5 5 11 16 14 12 3 18 10 15 15 -3 5 9 24 27 42 24 24 26 30 10 21 -38 -19
-26 -3 17 24 23 14 44 34 47 43 18 49 127 162 156 162 8 0 17 7 21 15 3 8 17
15 30 15 14 0 29 6 33 13 4 6 22 13 38 13 17 1 39 5 50 8 15 5 23 1 30 -16 9
-19 17 -23 50 -21 25 2 35 0 26 -6 -23 -14 5 -23 53 -16 39 6 45 5 51 -14 6
-20 25 -30 25 -13 0 4 12 8 26 8 17 2 24 -2 20 -11 -3 -8 2 -19 11 -27 14 -12
16 -10 11 17 -5 26 -5 28 7 12 15 -20 65 -33 65 -17 0 11 37 9 57 -3 6 -4 51
-10 100 -12 48 -3 104 -7 123 -9 19 -2 43 1 54 6 10 6 16 6 13 1 -3 -5 60 -8
151 -8 144 1 159 0 187 -19 16 -12 48 -30 71 -41 52 -24 131 -119 140 -166 4
-19 10 -38 14 -44 4 -5 15 -39 25 -75 9 -36 20 -69 24 -75 20 -32 42 -159 41
-240 -2 -182 -6 -305 -12 -310 -2 -3 -19 -2 -35 1 -23 5 -40 19 -64 57 -42 65
-103 124 -147 143 -42 17 -45 17 -35 2 4 -7 -4 -6 -19 4 -18 12 -28 14 -36 6
-8 -8 -15 -8 -26 1 -8 7 -20 10 -27 6 -6 -4 -16 -1 -21 6 -7 11 -11 11 -15 2
-7 -18 -26 -16 -20 1 4 10 0 14 -14 13 -10 -1 -19 -5 -19 -10 0 -5 -10 -6 -22
-3 -48 15 -78 17 -78 7 0 -6 -13 -11 -29 -11 -18 0 -34 -8 -45 -22 -15 -22
-16 -22 -30 -4 -9 10 -17 23 -19 29 -5 15 -57 -22 -57 -40 0 -12 -3 -13 -13
-4 -11 8 -19 5 -34 -13 -12 -13 -27 -26 -34 -30 -11 -5 -11 -7 -1 -12 31 -14
6 -23 -55 -20 -92 5 -123 18 -123 52 0 50 -102 124 -172 124 -21 0 -53 9 -72
19 -19 11 -59 22 -90 24 -30 2 -61 9 -69 15 -8 7 -17 9 -20 6 -3 -3 -30 -6
-60 -5 -42 0 -59 -5 -77 -21 -13 -12 -37 -22 -54 -22 -19 -1 -30 -6 -29 -13 2
-7 -2 -13 -7 -13 -6 0 -10 -5 -10 -11 0 -5 5 -7 12 -3 7 4 8 3 4 -4 -4 -7 -21
-12 -37 -12 -17 0 -50 -9 -74 -20 -34 -15 -55 -19 -86 -14 -31 5 -40 4 -35 -4
4 -7 14 -12 22 -12 26 0 14 -20 -16 -26 -39 -8 -28 -24 16 -24 30 0 34 -3 34
-27 0 -36 13 -21 25 30 7 28 18 46 35 54 30 15 140 17 140 3 0 -5 -15 -10 -34
-10 -19 0 -37 -4 -41 -10 -9 -14 27 -50 51 -50 33 0 35 -10 9 -45 -14 -17 -25
-43 -25 -56 0 -13 -9 -38 -20 -56 -10 -18 -15 -35 -10 -38 5 -3 11 -1 14 4 3
4 30 9 60 9 46 0 56 -3 61 -19 3 -10 17 -27 31 -38 27 -21 34 -71 9 -71 -8 0
-15 -4 -15 -9 0 -16 26 -31 66 -36 21 -3 45 -8 52 -11 8 -2 16 5 19 16 6 21
28 27 38 10 9 -15 25 -12 25 5 0 8 4 15 9 15 5 0 14 -7 21 -15 10 -12 9 -15
-6 -15 -14 0 -15 -3 -6 -12 17 -17 34 8 26 36 -4 12 -2 17 6 14 6 -2 11 -8 10
-13 -1 -5 8 -13 20 -17 24 -9 60 9 53 28 -4 10 20 21 67 30 8 2 27 17 43 34
15 16 27 28 27 25 0 -12 -35 -75 -42 -75 -4 0 -8 -7 -8 -15 0 -24 18 -17 34
13 8 16 22 34 30 41 13 11 16 11 16 -2 0 -9 -4 -19 -10 -22 -5 -3 -10 -16 -10
-27 0 -20 1 -20 18 3 10 13 27 42 37 64 10 22 25 45 33 51 9 7 11 13 5 17 -14
9 -44 -15 -47 -38 -1 -10 -8 -21 -14 -23 -14 -4 -16 24 -2 33 5 3 17 32 26 65
9 33 22 64 28 68 14 12 169 -8 178 -22 12 -17 9 -49 -7 -80 -8 -15 -12 -33 -8
-40 4 -6 8 -30 9 -52 1 -28 9 -49 23 -63 11 -11 21 -16 21 -11 0 21 16 9 29
-22 20 -49 25 -12 8 56 -9 32 -11 58 -6 62 5 3 9 -1 9 -8 0 -22 44 -118 55
-118 6 0 22 -11 37 -25 15 -14 34 -25 43 -25 10 0 13 -5 9 -12 -5 -8 -2 -9 9
-5 26 10 48 -3 42 -23 -8 -24 11 -35 23 -14 8 15 10 15 15 0 7 -18 72 -23 83
-5 3 6 15 8 26 6 11 -3 21 0 25 9 3 9 13 12 24 9 22 -7 26 17 10 58 -11 28 6
59 41 78 17 9 24 7 43 -16 14 -18 32 -29 52 -30 30 -2 30 -2 37 63 6 73 11 81
48 84 20 2 27 8 30 30 5 31 4 32 -23 18 -15 -9 -19 -7 -19 5 0 24 27 29 71 15
39 -13 39 -14 39 -65 0 -28 4 -55 9 -61 18 -19 39 -128 42 -211 0 -31 5 -43
16 -43 10 0 13 6 9 17 -6 14 -3 14 15 -3 12 -10 19 -13 15 -7 -4 7 -2 29 3 50
12 43 10 47 -19 38 -16 -5 -19 -10 -11 -18 17 -17 13 -31 -4 -17 -9 7 -13 20
-10 29 4 9 9 41 12 71 2 30 11 60 19 66 17 14 17 32 0 63 -17 30 -9 61 14 61
23 0 27 15 29 104 1 38 6 76 10 85 5 9 12 44 16 79 4 34 10 64 15 67 10 6 4
108 -10 170 -7 28 -14 72 -16 98 -2 27 -16 70 -29 98 -20 39 -22 49 -10 49 11
0 9 9 -10 36 -14 20 -25 49 -25 64 0 15 -20 65 -45 111 -25 46 -50 95 -57 109
-7 13 -27 38 -45 56 -17 17 -38 45 -47 62 -9 17 -31 46 -50 64 -18 18 -42 51
-52 73 -27 57 -94 174 -103 180 -5 2 -6 -7 -3 -20 2 -15 0 -25 -7 -25 -6 0
-11 5 -11 11 0 5 -5 7 -11 3 -8 -4 -7 -9 2 -15 7 -4 10 -11 6 -15 -8 -8 -46
35 -47 54 0 6 -6 12 -14 12 -8 0 -17 -6 -20 -12 -5 -10 -7 -10 -12 0 -3 7 -24
29 -45 49 -26 24 -39 45 -39 62 0 21 -2 23 -11 11 -8 -12 -12 -12 -16 -2 -6
15 -67 92 -110 140 -19 20 -39 32 -55 32 -18 0 -27 7 -32 23 -5 18 -8 19 -15
7 -9 -12 -14 -11 -34 8 -27 26 -39 28 -31 7z m-58 -177 c-2 -6 -10 -14 -16
-16 -7 -2 -10 2 -6 12 7 18 28 22 22 4z m-188 -53 c0 -8 -5 -15 -11 -15 -5 0
-8 -4 -5 -9 4 -5 -3 -7 -14 -4 -20 5 -26 23 -13 36 12 13 43 7 43 -8z m-405
-254 c-3 -6 -11 -11 -17 -11 -6 0 -6 6 2 15 14 17 26 13 15 -4z m-5 -51 c0 -5
-4 -10 -10 -10 -5 0 -10 5 -10 10 0 6 5 10 10 10 6 0 10 -4 10 -10z m-470
-785 c0 -8 -4 -15 -10 -15 -5 0 -10 7 -10 15 0 8 5 15 10 15 6 0 10 -7 10 -15z
m556 -290 c25 -19 6 -19 -61 -1 l-50 14 46 1 c26 1 54 -5 65 -14z m79 -10 c41
-11 44 -14 20 -14 -39 -1 -75 9 -75 20 0 5 1 9 3 9 1 -1 25 -7 52 -15z m115
-21 c0 -2 -13 -4 -30 -4 -16 0 -30 4 -30 8 0 5 14 7 30 4 17 -2 30 -6 30 -8z
m70 -19 c38 -15 30 -19 -19 -9 -17 4 -31 10 -31 15 0 11 7 11 50 -6z m75 -25
c3 -5 15 -10 26 -10 30 0 32 -21 8 -86 -28 -77 -55 -109 -32 -38 29 91 28 99
-9 122 -21 14 -27 22 -16 22 9 0 20 -4 23 -10z m-546 -90 c-13 -16 -24 -28
-26 -27 -7 8 23 57 35 57 8 0 5 -10 -9 -30z m116 1 c3 -15 19 -41 35 -56 24
-23 35 -27 66 -22 41 7 72 31 86 66 l9 24 15 -22 c10 -13 13 -29 8 -39 -4 -9
-6 -23 -5 -31 2 -8 -2 -10 -11 -5 -10 6 -11 5 -1 -7 9 -11 8 -18 -1 -31 -7
-10 -16 -15 -19 -11 -4 3 -2 12 4 20 14 16 5 17 -22 1 -18 -11 -23 -10 -26 0
-4 10 -10 10 -29 -3 -18 -12 -24 -12 -24 -3 0 20 -38 39 -65 32 -36 -9 -85 29
-85 66 0 50 54 68 65 21z m1335 -10 c0 -11 -26 -22 -34 -14 -12 12 -5 23 14
23 11 0 20 -4 20 -9z m-43 -27 c-3 -3 -12 -4 -19 -1 -8 3 -5 6 6 6 11 1 17 -2
13 -5z m266 -49 c1 -5 -6 -11 -15 -13 -11 -2 -18 3 -18 13 0 17 30 18 33 0z
m-838 -73 c2 -12 0 -22 -6 -22 -5 0 -9 3 -10 8 0 4 -2 17 -3 30 -3 28 13 14
19 -16z m452 23 c-4 -8 -2 -17 4 -20 18 -12 -2 -25 -37 -25 -39 0 -43 11 -14
40 24 24 55 27 47 5z m-1037 -35 c0 -13 -28 -25 -38 -16 -3 4 0 11 8 16 20 13
30 12 30 0z m965 -160 c3 -5 -1 -10 -9 -10 -9 0 -16 5 -16 10 0 6 4 10 9 10 6
0 13 -4 16 -10z m-30 -20 c3 -5 1 -10 -4 -10 -6 0 -11 5 -11 10 0 6 2 10 4 10
3 0 8 -4 11 -10z"/>
<path d="M3327 4660 c13 -13 56 -23 49 -12 -3 5 -17 12 -32 15 -14 2 -22 1
-17 -3z"/>
<path d="M4635 4639 c-11 -17 1 -21 15 -4 8 9 8 15 2 15 -6 0 -14 -5 -17 -11z"/>
<path d="M3400 4630 c20 -13 33 -13 25 0 -3 6 -14 10 -23 10 -15 0 -15 -2 -2
-10z"/>
<path d="M3530 4590 c0 -5 4 -10 9 -10 5 0 18 -3 28 -6 16 -5 16 -4 -1 10 -23
18 -36 20 -36 6z"/>
<path d="M4570 4592 c0 -5 -16 -17 -35 -28 -19 -10 -35 -22 -35 -27 0 -4 14 0
31 10 37 22 67 53 51 53 -7 0 -12 -4 -12 -8z"/>
<path d="M175 4560 c3 -5 8 -10 11 -10 2 0 4 5 4 10 0 6 -5 10 -11 10 -5 0 -7
-4 -4 -10z"/>
<path d="M3635 4546 c22 -15 95 -33 82 -20 -8 8 -76 34 -92 34 -5 0 -1 -6 10
-14z"/>
<path d="M4470 4520 c-8 -5 -12 -11 -9 -14 2 -3 11 -1 19 4 8 5 12 11 9 14 -2
3 -11 1 -19 -4z"/>
<path d="M4370 4444 c-49 -35 -61 -50 -22 -28 18 10 40 27 49 37 21 22 15 21
-27 -9z"/>
<path d="M3890 4456 c0 -2 9 -6 20 -9 11 -3 18 -1 14 4 -5 9 -34 13 -34 5z"/>
<path d="M4228 4333 c7 -3 16 -2 19 1 4 3 -2 6 -13 5 -11 0 -14 -3 -6 -6z"/>
<path d="M1580 4140 c8 -5 20 -10 25 -10 6 0 3 5 -5 10 -8 5 -19 10 -25 10 -5
0 -3 -5 5 -10z"/>
<path d="M4295 3831 c-77 -20 -122 -62 -110 -102 11 -33 57 -70 82 -64 12 3
23 1 25 -5 8 -25 121 -7 166 27 28 21 32 30 32 68 0 36 -5 47 -27 62 -30 20
-116 27 -168 14z"/>
<path d="M1617 3206 c-19 -29 -14 -35 10 -11 8 8 13 20 11 26 -2 7 -12 0 -21
-15z"/>
<path d="M1640 3159 c0 -6 -7 -9 -15 -5 -12 4 -15 -2 -14 -27 0 -18 3 -26 6
-19 2 6 9 12 14 12 6 0 7 -4 4 -10 -3 -5 -2 -10 2 -10 5 0 9 16 10 35 1 19 -1
35 -3 35 -2 0 -4 -5 -4 -11z"/>
<path d="M1560 3029 c0 -5 5 -7 10 -4 6 3 10 8 10 11 0 2 -4 4 -10 4 -5 0 -10
-5 -10 -11z"/>
<path d="M1835 3030 c-3 -5 3 -10 15 -10 12 0 18 5 15 10 -3 6 -10 10 -15 10
-5 0 -12 -4 -15 -10z"/>
<path d="M1605 2971 c-21 -23 -28 -41 -30 -76 -1 -25 2 -48 7 -51 5 -4 7 -12
4 -20 -3 -7 0 -16 6 -20 7 -4 8 -3 4 4 -4 7 -3 12 2 12 5 0 9 14 10 32 0 17
10 43 21 57 60 75 40 128 -24 62z"/>
<path d="M1493 2736 c17 -13 17 -15 1 -24 -11 -6 -13 -11 -5 -16 6 -4 11 -2
11 3 0 6 4 11 9 11 5 0 7 -9 4 -20 -3 -11 -9 -18 -13 -15 -5 3 -12 0 -17 -7
-11 -19 -14 -80 -2 -73 5 4 9 12 9 19 0 8 7 19 15 26 9 7 13 15 11 17 -2 3 0
18 6 34 11 33 -2 59 -31 59 -14 -1 -14 -2 2 -14z"/>
<path d="M1580 2741 c0 -5 5 -13 10 -16 6 -3 10 -2 10 4 0 5 -4 13 -10 16 -5
3 -10 2 -10 -4z"/>
<path d="M1567 2673 c-7 -38 -2 -53 15 -53 7 0 8 13 5 35 -3 21 -2 33 3 30 6
-3 7 1 4 9 -10 26 -21 18 -27 -21z"/>
<path d="M3260 2621 c0 -6 5 -13 10 -16 6 -3 10 1 10 9 0 9 -4 16 -10 16 -5 0
-10 -4 -10 -9z"/>
<path d="M2110 2595 c-16 -19 0 -19 26 0 16 12 16 14 3 15 -9 0 -22 -7 -29
-15z"/>
<path d="M1545 2569 c-10 -15 3 -25 16 -12 7 7 7 13 1 17 -6 3 -14 1 -17 -5z"/>
<path d="M1506 2485 c-3 -8 -1 -15 5 -15 5 0 4 -6 -3 -14 -7 -8 -16 -10 -19
-5 -3 6 -11 -8 -17 -29 -15 -51 -15 -51 8 -45 11 3 18 9 15 13 -3 5 4 6 14 3
17 -4 21 2 26 40 7 45 2 67 -15 67 -4 0 -10 -7 -14 -15z"/>
<path d="M3095 2480 c3 -5 8 -10 11 -10 2 0 4 5 4 10 0 6 -5 10 -11 10 -5 0
-7 -4 -4 -10z"/>
<path d="M3147 2473 c-4 -3 -7 -11 -7 -17 0 -6 5 -5 12 2 6 6 9 14 7 17 -3 3
-9 2 -12 -2z"/>
<path d="M0 2426 c0 -41 2 -46 23 -46 37 0 522 -92 639 -121 42 -10 90 -19
107 -19 16 0 33 -5 36 -10 4 -6 14 -10 23 -9 10 1 24 -1 32 -4 8 -3 33 -8 55
-10 41 -5 314 -53 460 -82 44 -8 81 -15 83 -15 1 0 -7 18 -18 39 -14 29 -28
41 -50 46 -34 7 -38 19 -12 34 26 16 5 13 -27 -3 -24 -13 -39 -12 -127 6 -54
11 -110 21 -124 23 -28 3 -216 40 -410 81 -69 14 -138 28 -155 30 -16 2 -67
11 -113 21 -72 14 -83 19 -79 35 6 22 4 22 -31 4 -23 -12 -36 -12 -92 0 -63
14 -120 26 -187 39 l-33 7 0 -46z"/>
<path d="M3606 2393 c-4 -43 -8 -87 -9 -97 -4 -33 20 -28 27 5 9 45 7 142 -3
157 -5 8 -11 -17 -15 -65z"/>
<path d="M3664 2445 c1 -32 12 -32 18 0 3 16 1 25 -7 25 -7 0 -12 -11 -11 -25z"/>
<path d="M2662 2335 c-13 -7 -23 -15 -23 -19 2 -21 0 -26 -9 -21 -10 6 -14
-19 -10 -64 2 -21 -1 -23 -27 -17 -44 11 -67 8 -79 -9 -6 -8 -16 -15 -23 -15
-23 0 -10 28 24 55 28 21 39 24 50 15 10 -8 15 -8 21 1 11 18 -57 74 -90 74
-14 0 -26 -3 -26 -7 0 -5 -7 -8 -15 -8 -8 0 -15 -4 -15 -9 0 -6 -13 -25 -30
-43 -25 -27 -27 -34 -15 -41 9 -4 13 -13 10 -18 -4 -5 -11 -7 -16 -4 -5 4 -9
0 -9 -7 0 -19 -49 -70 -61 -63 -5 4 -12 0 -15 -8 -3 -9 -19 -21 -35 -27 -16
-7 -29 -17 -29 -22 0 -5 -5 -6 -11 -3 -5 4 -19 -1 -29 -10 -10 -9 -24 -14 -29
-10 -6 3 -11 2 -11 -4 0 -5 -18 -32 -40 -60 -22 -28 -40 -58 -40 -68 0 -10 -7
-27 -15 -37 -8 -11 -13 -28 -9 -38 3 -10 1 -18 -5 -18 -19 0 -8 -49 12 -54 11
-2 16 -9 13 -15 -4 -5 -2 -12 4 -16 5 -3 10 -1 10 5 0 6 5 8 10 5 6 -3 10 -2
10 3 0 6 10 8 22 4 15 -3 19 -2 14 7 -13 20 35 51 68 45 18 -4 31 -1 36 7 6 9
12 10 22 2 7 -6 43 -13 81 -16 54 -3 71 -8 86 -26 26 -30 19 -44 -35 -71 -47
-25 -49 -27 -34 -50 9 -13 11 -13 20 0 8 13 10 13 10 -2 0 -16 25 -29 65 -33
11 -2 19 -7 18 -12 -1 -6 9 -8 23 -5 17 3 24 0 22 -8 -2 -7 3 -15 10 -17 6 -3
12 3 12 12 0 9 6 15 13 12 6 -2 11 -9 10 -15 -2 -6 6 -10 17 -9 10 1 16 5 13
10 -3 5 5 6 18 1 13 -4 38 -8 55 -9 16 -1 36 -5 42 -9 7 -4 12 -3 12 1 0 5 10
14 21 22 18 10 23 10 30 0 6 -10 10 -10 23 0 9 7 14 17 11 21 -3 5 -1 11 5 15
5 3 10 -1 10 -9 0 -9 4 -16 9 -16 4 0 11 21 14 48 4 39 2 50 -16 67 -12 11
-25 19 -28 18 -4 -1 -6 20 -5 46 0 27 3 48 5 45 2 -2 12 1 23 7 15 8 24 5 42
-12 13 -12 34 -24 47 -26 13 -2 31 -11 39 -21 16 -17 54 -42 66 -42 3 0 4 7 0
15 -5 13 -2 13 19 -1 14 -9 27 -30 31 -49 3 -19 15 -41 25 -51 18 -16 19 -16
19 3 0 12 -7 23 -15 27 -24 9 -18 28 6 21 19 -6 21 -4 16 16 -3 14 0 32 8 42
7 11 12 24 9 31 -3 7 0 25 5 39 14 35 3 90 -15 83 -8 -3 -13 -2 -12 2 4 16
-14 52 -27 52 -8 0 -20 12 -27 28 -10 19 -21 26 -36 25 -13 -2 -22 3 -22 11 0
7 -10 17 -22 21 -13 4 -26 8 -30 10 -5 1 -15 3 -23 4 -19 1 -86 90 -79 103 4
6 0 14 -7 19 -12 8 -11 12 4 23 24 19 21 58 -7 78 -34 25 -92 14 -101 -19 -7
-30 0 -42 31 -53 24 -10 42 -36 31 -46 -11 -11 -67 8 -67 22 0 8 -6 14 -14 12
-19 -4 -19 3 -5 51 10 32 9 42 -6 65 -19 29 -21 29 -53 11z m-103 -366 c-16
-10 -23 -4 -14 10 3 6 11 8 17 5 6 -4 5 -9 -3 -15z m-99 -4 c0 -8 -4 -15 -9
-15 -5 0 -11 7 -15 15 -3 9 0 15 9 15 8 0 15 -7 15 -15z m307 -1 c3 -8 9 -14
15 -14 5 0 6 5 3 10 -3 6 -2 10 4 10 28 0 17 -20 -16 -29 -25 -7 -39 -7 -41
-1 -5 14 -32 13 -32 -1 0 -8 -4 -8 -14 0 -10 9 -16 9 -21 1 -5 -8 -11 -8 -21
1 -30 25 -15 31 84 36 21 0 35 -4 39 -13z m-257 2 c0 -3 -4 -8 -10 -11 -5 -3
-10 -1 -10 4 0 6 5 11 10 11 6 0 10 -2 10 -4z m-110 -20 c0 -2 -7 -6 -15 -10
-8 -3 -15 -1 -15 4 0 6 7 10 15 10 8 0 15 -2 15 -4z m60 -106 c0 -5 -4 -10
-10 -10 -5 0 -10 5 -10 10 0 6 5 10 10 10 6 0 10 -4 10 -10z m159 -4 c13 -15
28 -16 51 -1 8 5 34 11 57 13 39 3 43 1 49 -23 7 -30 0 -42 -18 -28 -7 5 -42
10 -77 11 -37 1 -67 6 -72 13 -4 6 -12 8 -19 4 -10 -6 -9 -11 5 -22 18 -13 18
-13 -1 -13 -26 0 -51 39 -32 51 20 13 44 11 57 -5z m-139 -61 c19 -21 21 -25
7 -25 -9 0 -17 7 -17 15 0 7 -8 19 -17 24 -10 6 -13 11 -7 11 6 0 21 -11 34
-25z"/>
<path d="M3583 2194 c-3 -8 -1 -20 5 -26 7 -7 10 -2 9 16 -2 30 -5 32 -14 10z"/>
<path d="M3572 2123 c0 -37 10 -51 19 -27 12 31 10 54 -5 54 -8 0 -14 -11 -14
-27z"/>
<path d="M3538 2055 c-3 -14 -2 -27 1 -30 13 -8 33 13 29 30 -5 29 -25 29 -30
0z"/>
<path d="M3565 2006 c-11 -8 -24 -12 -30 -10 -6 3 -10 -13 -11 -37 0 -23 -7
-45 -15 -51 -11 -8 -10 -9 4 -4 11 3 17 0 17 -9 0 -8 -5 -15 -11 -15 -6 0 -8
-9 -4 -20 5 -15 2 -20 -10 -20 -11 0 -15 -5 -11 -15 3 -8 2 -15 -2 -15 -5 0
-8 -15 -9 -32 0 -40 -15 -79 -37 -97 -14 -11 -16 -11 -16 3 0 21 -26 32 -44
17 -19 -16 -36 8 -25 34 9 18 9 18 5 -3 -4 -19 -2 -21 10 -11 18 15 18 39 -1
39 -8 0 -19 9 -25 20 -14 26 -30 26 -30 -1 0 -11 -5 -17 -10 -14 -6 3 -13 -1
-16 -10 -4 -9 -13 -14 -20 -11 -8 3 -20 -3 -26 -14 -7 -11 -18 -20 -25 -20 -7
0 -13 -7 -13 -16 0 -9 -9 -29 -21 -45 -11 -16 -17 -33 -14 -39 13 -21 -26 -22
-46 -1 -11 11 -26 21 -34 21 -7 0 -17 9 -20 20 -3 11 -11 20 -17 20 -7 0 -7
-4 1 -13 8 -10 7 -19 -4 -33 -13 -17 -16 -17 -26 -4 -8 12 -10 10 -6 -11 3
-21 -4 -33 -29 -54 -32 -27 -50 -71 -45 -107 1 -12 -4 -18 -17 -18 -10 0 -24
-11 -30 -24 -9 -21 -15 -23 -58 -18 -45 5 -47 4 -41 -17 4 -17 0 -24 -20 -32
-29 -11 -45 -3 -23 12 12 8 11 9 -5 7 -11 -2 -20 -8 -20 -15 0 -22 -13 -24
-44 -8 -34 17 -51 13 -51 -13 -1 -15 -2 -15 -11 1 -11 19 -6 32 14 32 21 0 18
25 -5 34 -30 11 -76 8 -105 -7 -30 -16 -43 -15 -43 5 0 15 -2 14 -14 -3 -13
-16 -18 -17 -33 -6 -10 6 -25 15 -33 19 -8 4 -18 11 -22 17 -5 7 -12 5 -20 -6
-18 -22 -61 -7 -51 18 7 18 -5 17 -51 -2 -14 -5 -17 -4 -12 4 11 19 -4 54 -20
48 -17 -7 -18 6 -1 23 6 6 12 27 12 45 0 25 -4 32 -16 29 -19 -5 -58 29 -40
35 6 2 11 9 11 15 0 8 -4 7 -12 -1 -19 -19 -26 -14 -30 16 -2 19 -8 26 -20 24
-10 -2 -18 3 -18 11 0 17 -48 29 -53 14 -4 -12 -27 0 -27 14 0 5 7 9 15 9 8 0
15 5 15 10 0 17 -25 11 -43 -11 -13 -15 -16 -29 -11 -51 5 -26 4 -30 -10 -25
-15 6 -18 2 -20 -32 -1 -8 -7 -16 -15 -19 -8 -3 -11 0 -7 7 4 6 2 11 -3 11
-17 0 -13 -30 5 -37 9 -3 20 0 25 8 7 11 9 10 9 -6 1 -19 2 -19 20 3 10 12 21
18 25 13 3 -6 -6 -18 -20 -27 -19 -12 -25 -23 -21 -38 5 -19 -9 -46 -23 -46
-4 0 -7 9 -7 20 0 11 4 20 8 20 4 0 8 5 8 10 0 23 -29 7 -39 -21 -17 -49 -14
-68 9 -62 11 3 20 9 20 14 0 5 6 9 14 9 21 0 25 -32 6 -48 -13 -12 -12 -13 8
-8 48 13 66 16 55 10 -7 -3 -13 -12 -13 -19 0 -15 -35 -30 -49 -21 -5 4 -16
-1 -24 -9 -17 -17 -37 -20 -37 -5 0 8 -70 33 -77 27 -1 -2 8 -26 22 -53 30
-62 39 -84 39 -109 1 -12 10 -21 25 -25 13 -3 29 -14 35 -25 6 -11 17 -24 24
-28 18 -12 15 -30 -4 -23 -23 9 -37 -3 -23 -20 6 -7 15 -12 19 -9 4 2 16 -6
28 -18 20 -21 22 -25 22 -46 0 -5 11 -12 25 -15 14 -4 29 -14 32 -22 11 -29
50 -64 71 -64 11 0 22 -4 24 -10 2 -8 29 -16 61 -19 5 -1 7 -7 4 -13 -7 -21
23 -70 39 -64 8 3 14 2 14 -3 0 -4 11 -13 25 -19 14 -7 25 -20 25 -31 0 -10 8
-25 17 -32 15 -13 16 -12 11 9 -7 26 -2 28 18 7 9 -8 12 -21 9 -27 -4 -7 2 -2
13 11 11 14 18 30 16 36 -3 7 2 12 10 12 9 0 14 -8 13 -21 -2 -18 4 -21 35
-22 33 -1 37 2 40 25 l4 26 13 -27 c13 -26 15 -26 28 -10 12 15 13 14 11 -13
-2 -17 3 -35 12 -42 13 -11 13 -14 1 -22 -12 -7 -12 -11 0 -24 11 -11 18 -12
32 -3 13 8 20 8 25 0 13 -20 53 -23 70 -6 9 9 17 23 18 30 2 27 4 32 14 32 6
0 10 -7 10 -15 0 -20 7 -19 29 3 21 20 36 72 21 72 -17 0 -11 17 15 41 13 13
25 30 25 37 0 6 5 12 11 12 6 0 17 7 26 16 9 8 22 13 29 10 8 -3 14 1 14 9 0
8 -7 15 -15 15 -8 0 -15 7 -15 15 0 16 12 20 24 8 3 -4 15 -7 26 -8 24 -2 46
20 30 30 -5 3 -10 1 -10 -4 0 -6 -9 -11 -20 -11 -17 0 -19 3 -11 19 6 10 8 21
4 24 -3 3 -2 14 2 24 5 10 8 21 7 25 -2 7 64 59 88 70 11 5 12 7 1 7 -10 1
-11 4 -2 15 7 8 11 23 9 33 -2 10 2 17 9 16 7 -2 17 6 23 17 6 11 16 17 25 14
10 -4 15 0 15 14 0 11 7 25 15 32 8 7 15 20 15 29 0 9 8 21 19 28 17 11 18 9
9 -35 -5 -26 -6 -129 -3 -232 l7 -185 -26 24 c-28 26 -29 25 -26 -29 1 -22 13
-47 32 -68 39 -45 89 -155 102 -227 3 -16 8 -79 10 -139 3 -60 9 -112 13 -115
4 -3 10 -24 12 -46 1 -22 8 -43 14 -47 14 -9 2 -132 -18 -170 -8 -17 -15 -33
-15 -35 0 -1 293 -3 651 -3 l651 0 -6 38 c-3 20 -11 107 -16 192 -6 85 -21
317 -35 515 -42 600 -43 630 -37 637 4 4 43 0 87 -9 44 -8 178 -32 298 -52
l217 -38 0 103 0 103 -37 8 c-21 4 -44 6 -50 5 -7 -2 -13 1 -13 6 0 4 -17 9
-37 9 -21 1 -47 4 -58 6 -60 11 -85 20 -85 28 0 5 -15 6 -34 3 -20 -3 -37 0
-41 6 -4 6 -15 8 -25 5 -9 -3 -30 0 -46 6 -16 7 -38 11 -49 10 -18 -1 -18 0 4
19 13 11 21 24 17 27 -4 4 -10 2 -14 -4 -14 -22 -96 -26 -167 -8 -38 10 -80
17 -94 17 -39 -1 -101 17 -101 30 0 7 -5 6 -15 -2 -8 -6 -20 -8 -26 -4 -16 10
-88 25 -116 25 -12 -1 -25 4 -28 9 -3 5 -19 7 -35 3 -23 -4 -30 -2 -30 11 0
18 -15 22 -25 6 -3 -5 -11 -10 -16 -10 -6 0 -8 4 -4 9 3 5 1 12 -4 15 -5 4
-12 2 -16 -4 -9 -15 -25 -12 -19 4 8 22 -30 29 -76 15 -29 -9 -44 -9 -48 -2
-4 6 -20 10 -37 9 -16 -1 -37 4 -45 10 -20 15 -60 24 -60 14 0 -11 -17 -8 -57
9 -18 7 -30 17 -27 22 3 5 -2 9 -10 9 -20 0 -29 -17 -14 -24 7 -3 2 -3 -12 0
-14 4 -33 14 -42 24 -16 17 -16 18 3 23 14 4 19 14 19 36 0 18 7 48 15 67 8
20 12 40 9 46 -3 5 0 15 6 23 16 19 9 19 -15 1z m-275 -312 c0 -8 -5 -12 -10
-9 -6 4 -8 11 -5 16 9 14 15 11 15 -7z m-1160 -64 c0 -12 -64 -4 -68 8 -2 6 7
12 20 14 23 4 48 -8 48 -22z m1272 0 c-4 -3 -10 -9 -14 -15 -7 -8 -6 1 1 45 1
3 5 -2 11 -10 5 -8 6 -17 2 -20z m-62 -170 c0 -5 -5 -10 -11 -10 -5 0 -7 5 -4
10 3 6 8 10 11 10 2 0 4 -4 4 -10z m425 -60 c165 -27 338 -56 385 -65 47 -8
113 -20 148 -26 50 -9 65 -16 71 -33 8 -19 12 -68 27 -316 3 -47 7 -105 10
-130 2 -25 7 -79 10 -120 4 -41 7 -84 8 -95 0 -11 5 -26 9 -32 5 -8 4 -13 -3
-13 -6 0 -9 -8 -6 -17 8 -29 32 -246 41 -380 3 -41 2 -42 -19 -31 -11 6 -42
29 -67 50 -25 21 -52 38 -60 38 -8 0 -22 9 -32 20 -9 11 -23 20 -31 20 -8 0
-16 7 -20 15 -3 8 -12 15 -19 15 -8 0 -24 9 -37 20 -12 11 -26 17 -31 14 -5
-2 -14 4 -21 16 -7 11 -18 20 -24 20 -6 0 -38 16 -70 35 -32 19 -62 35 -66 35
-5 0 -18 9 -30 20 -12 11 -30 20 -39 20 -10 0 -21 5 -24 11 -6 9 -42 27 -70
33 -13 4 -54 23 -85 41 -14 8 -33 15 -42 15 -9 0 -20 5 -23 10 -3 6 -14 10
-24 10 -10 0 -37 14 -59 30 -23 16 -51 30 -63 30 -11 0 -18 4 -15 9 3 5 -8 11
-24 14 -59 12 -60 21 -70 408 -4 195 -6 357 -3 362 2 4 19 5 36 2 18 -3 167
-27 332 -55z m-1455 -20 c0 -5 -2 -10 -4 -10 -3 0 -8 5 -11 10 -3 6 -1 10 4
10 6 0 11 -4 11 -10z m294 -7 c-5 -5 -12 -12 -16 -18 -4 -6 -8 -2 -8 8 0 9 7
17 17 17 9 0 12 -3 7 -7z m-539 -33 c-3 -5 -11 -10 -16 -10 -6 0 -7 5 -4 10 3
6 11 10 16 10 6 0 7 -4 4 -10z m245 -475 c0 -8 -4 -15 -8 -15 -5 0 -9 7 -9 15
0 8 4 15 9 15 4 0 8 -7 8 -15z m416 -190 c-3 -9 -11 -13 -16 -10 -8 5 -7 11 1
21 14 18 24 11 15 -11z"/>
<path d="M1819 1811 c-31 -36 -29 -86 4 -95 20 -5 20 -6 4 -24 -22 -24 -22
-36 -1 -28 13 5 14 4 6 -7 -7 -8 -9 -17 -5 -20 12 -13 23 -7 23 14 0 24 27 23
44 -3 8 -13 6 -22 -8 -37 -10 -11 -23 -18 -27 -15 -5 3 -6 -2 -3 -10 8 -22 21
-20 34 5 7 11 17 18 24 16 7 -3 19 -1 27 5 11 8 11 9 -3 5 -26 -9 -16 45 11
59 40 21 46 32 27 53 -16 18 -16 20 3 54 19 34 18 47 -2 47 -5 0 -7 -6 -4 -14
4 -10 -4 -15 -28 -18 -30 -3 -32 -2 -24 14 6 11 6 18 1 18 -15 0 -34 -28 -27
-39 4 -7 0 -8 -10 -5 -12 5 -15 14 -11 30 9 35 -23 32 -55 -5z"/>
<path d="M3437 1833 c-4 -3 -7 -11 -7 -17 0 -6 5 -5 12 2 6 6 9 14 7 17 -3 3
-9 2 -12 -2z"/>
<path d="M3685 1820 c3 -5 11 -10 16 -10 6 0 7 5 4 10 -3 6 -11 10 -16 10 -6
0 -7 -4 -4 -10z"/>
<path d="M2190 1799 c0 -5 5 -7 10 -4 6 3 10 8 10 11 0 2 -4 4 -10 4 -5 0 -10
-5 -10 -11z"/>
<path d="M3983 1773 c-13 -2 -23 -9 -23 -14 0 -14 26 -11 40 6 7 8 11 14 9 14
-2 -1 -14 -4 -26 -6z"/>
<path d="M0 1242 c0 -344 2 -399 15 -399 9 0 13 8 11 21 -2 12 1 32 7 46 5 14
9 42 8 63 0 21 4 47 9 57 6 11 11 30 12 44 1 15 5 26 9 26 4 0 6 11 5 25 -2
15 7 35 23 54 24 27 30 28 86 24 33 -2 75 -8 94 -13 22 -6 41 -6 55 2 12 6 18
7 13 2 -4 -4 68 -20 160 -35 93 -16 193 -33 223 -38 30 -6 98 -15 150 -21 52
-6 136 -17 185 -25 50 -8 113 -17 140 -21 74 -9 92 -23 87 -65 -1 -4 -2 -34
-3 -66 -2 -52 -6 -65 -34 -96 -18 -20 -35 -34 -38 -31 -7 7 -67 -18 -62 -26 2
-3 -7 -6 -18 -7 -12 0 -44 -12 -72 -24 -27 -13 -56 -22 -62 -21 -7 2 -13 -2
-13 -8 0 -6 -6 -10 -12 -9 -15 2 -31 -3 -105 -38 -29 -13 -53 -28 -53 -34 0
-6 -8 -8 -19 -4 -25 8 -51 -4 -51 -23 0 -12 -3 -13 -12 -4 -8 8 -20 4 -47 -17
-20 -16 -51 -36 -70 -46 -26 -13 -31 -19 -20 -26 12 -8 12 -11 -1 -18 -9 -5
-28 -21 -43 -35 -15 -14 -33 -24 -40 -22 -6 1 -9 1 -5 -1 14 -8 8 -21 -12 -26
-10 -3 -21 0 -23 6 -2 8 -10 5 -22 -6 -10 -11 -27 -17 -40 -15 -12 3 -31 -1
-41 -9 -13 -10 -14 -13 -3 -13 12 0 12 -2 -1 -10 -20 -13 -33 -13 -25 0 10 16
-11 11 -25 -5 -7 -9 -19 -14 -25 -11 -7 2 -22 -2 -34 -10 -12 -9 -34 -14 -49
-13 -15 1 -40 -4 -57 -10 -16 -7 -37 -12 -45 -12 -8 1 -36 3 -62 4 l-48 4 0
-154 0 -153 1232 0 1231 0 -37 36 c-20 19 -33 40 -30 46 4 6 3 8 -3 5 -15 -9
-95 72 -89 89 3 9 -2 17 -12 21 -32 11 -50 34 -44 55 3 14 -2 26 -19 39 -32
25 -39 24 -39 -7 0 -16 -5 -24 -12 -21 -7 2 -12 12 -10 21 2 12 -3 16 -15 14
-14 -2 -18 4 -19 27 -1 48 -3 57 -13 51 -5 -4 -11 0 -14 6 -2 7 -8 9 -13 5 -5
-5 2 -16 14 -26 13 -9 20 -20 16 -24 -8 -8 -54 31 -54 46 0 4 -30 39 -68 77
-168 170 -289 307 -371 419 -33 47 -61 88 -61 92 0 3 6 12 14 19 8 6 27 48 42
93 15 45 29 86 32 91 3 5 7 39 9 75 9 137 11 126 -22 128 -16 0 -32 2 -35 3
-11 4 -48 9 -105 15 -33 3 -82 10 -110 15 -27 5 -77 12 -110 15 -33 3 -86 10
-119 14 -32 4 -69 7 -82 5 -13 -1 -24 1 -24 4 0 4 -21 8 -46 9 -31 2 -57 10
-78 27 -22 17 -37 22 -47 15 -12 -7 -52 -6 -154 6 -90 11 -123 17 -146 26 -15
6 -33 9 -40 8 -8 -1 -27 3 -44 10 -16 7 -56 12 -88 12 -34 0 -55 4 -52 10 4 5
-11 9 -33 9 -21 0 -42 3 -45 7 -4 3 -22 8 -39 10 -18 2 -40 6 -48 9 -8 4 -31
7 -50 8 -19 1 -41 5 -48 10 -8 5 -18 4 -24 -2 -7 -7 -19 -5 -36 4 -15 8 -30
14 -34 14 -5 0 -8 -179 -8 -398z m1530 -277 c0 -8 -4 -15 -10 -15 -5 0 -7 7
-4 15 4 8 8 15 10 15 2 0 4 -7 4 -15z m704 -693 c2 -4 1 -14 -4 -21 -10 -17
-31 -5 -23 14 6 16 19 20 27 7z"/>
<path d="M2410 1591 c0 -5 5 -13 10 -16 6 -3 10 -2 10 4 0 5 -4 13 -10 16 -5
3 -10 2 -10 -4z"/>
<path d="M1916 1526 c3 -9 11 -16 16 -16 13 0 5 23 -10 28 -7 2 -10 -2 -6 -12z"/>
<path d="M2871 1431 c-6 -11 -11 -22 -11 -25 0 -11 29 6 34 19 8 23 -12 28
-23 6z"/>
<path d="M1857 1434 c-13 -13 -7 -23 13 -21 11 1 19 6 17 11 -4 13 -21 18 -30
10z"/>
<path d="M2740 1396 c0 -2 8 -10 18 -17 15 -13 16 -12 3 4 -13 16 -21 21 -21
13z"/>
<path d="M1940 1160 c0 -5 5 -10 10 -10 6 0 10 5 10 10 0 6 -4 10 -10 10 -5 0
-10 -4 -10 -10z"/>
<path d="M2217 829 c8 -8 16 -8 30 0 16 9 14 10 -11 11 -22 0 -27 -3 -19 -11z"/>
<path d="M2320 796 c0 -2 7 -7 16 -10 8 -3 12 -2 9 4 -6 10 -25 14 -25 6z"/>
<path d="M2303 758 c2 -7 9 -13 16 -13 6 0 16 -7 21 -15 8 -12 10 -12 10 -1 0
14 -28 40 -43 41 -5 0 -7 -6 -4 -12z"/>
<path d="M2563 703 c-15 -5 -18 -33 -4 -33 5 0 11 9 14 20 3 11 4 20 4 19 -1
0 -8 -3 -14 -6z"/>
<path d="M110 320 c-8 -5 -12 -12 -9 -15 4 -3 12 1 19 10 14 17 11 19 -10 5z"/>
<path d="M2165 320 c-3 -5 -2 -10 4 -10 5 0 13 5 16 10 3 6 2 10 -4 10 -5 0
-13 -4 -16 -10z"/>
<path d="M3162 300 c0 -14 2 -19 5 -12 2 6 2 18 0 25 -3 6 -5 1 -5 -13z"/>
<path d="M2277 250 c3 -11 7 -20 9 -20 2 0 4 9 4 20 0 11 -4 20 -9 20 -5 0 -7
-9 -4 -20z"/>
<path d="M2316 244 c-7 -18 0 -34 15 -34 12 0 12 37 0 44 -5 3 -12 -1 -15 -10z"/>
<path d="M2354 229 c-3 -6 1 -18 10 -27 10 -11 16 -12 16 -4 0 7 5 12 10 12 6
0 10 -7 10 -15 0 -8 7 -15 15 -15 21 0 19 23 -3 43 -21 19 -48 22 -58 6z"/>
<path d="M2494 197 c3 -10 6 -23 6 -28 0 -5 5 -9 10 -9 14 0 12 13 -6 36 -14
17 -15 17 -10 1z"/>
<path d="M2456 191 c-4 -7 -5 -15 -2 -18 9 -9 19 4 14 18 -4 11 -6 11 -12 0z"/>
<path d="M2585 190 c4 -6 11 -8 16 -5 14 9 11 15 -7 15 -8 0 -12 -5 -9 -10z"/>
<path d="M2325 170 c3 -5 8 -10 11 -10 2 0 4 5 4 10 0 6 -5 10 -11 10 -5 0 -7
-4 -4 -10z"/>
<path d="M2371 171 c-8 -6 -9 -11 -3 -15 6 -3 14 -1 17 5 9 14 2 20 -14 10z"/>
<path d="M2552 160 c0 -14 2 -19 5 -12 2 6 2 18 0 25 -3 6 -5 1 -5 -13z"/>
<path d="M2670 151 c0 -6 4 -13 10 -16 6 -3 7 1 4 9 -7 18 -14 21 -14 7z"/>
</g>
</svg>
